<svg width="4" height="7" viewBox="0 0 4 7" fill="none" xmlns="http://www.w3.org/2000/svg">
<path d="M0.333496 1.99992V4.66659C0.333496 5.10861 0.509091 5.53254 0.821651 5.8451C1.13421 6.15766 1.55814 6.33325 2.00016 6.33325C2.44219 6.33325 2.86611 6.15766 3.17867 5.8451C3.49123 5.53254 3.66683 5.10861 3.66683 4.66659V1.49992C3.66683 1.1905 3.54391 0.893753 3.32512 0.674961C3.10633 0.456168 2.80958 0.333252 2.50016 0.333252C2.19074 0.333252 1.894 0.456168 1.6752 0.674961C1.45641 0.893753 1.3335 1.1905 1.3335 1.49992V4.33325C1.3335 4.51006 1.40373 4.67963 1.52876 4.80466C1.65378 4.92968 1.82335 4.99992 2.00016 4.99992C2.17697 4.99992 2.34654 4.92968 2.47157 4.80466C2.59659 4.67963 2.66683 4.51006 2.66683 4.33325V1.99992" stroke="white" stroke-width="0.666667" stroke-linecap="round" stroke-linejoin="round"/>
</svg>
