<svg width="8" height="4" viewBox="0 0 8 4" fill="none" xmlns="http://www.w3.org/2000/svg">
<path d="M0.109489 2.37682C0.0335765 2.30547 -0.0028613 2.22223 0.000175182 2.1271C0.00321167 2.03197 0.0428125 1.94872 0.118978 1.87738C0.19489 1.81197 0.283454 1.77773 0.38467 1.77463C0.485886 1.77154 0.57445 1.80579 0.650363 1.87738L1.9978 3.14382L2.13065 3.26868L2.2635 3.39354C2.33941 3.46488 2.37585 3.54813 2.37281 3.64326C2.36977 3.73839 2.33017 3.82163 2.25401 3.89298C2.17809 3.95838 2.08953 3.99263 1.98831 3.99572C1.8871 3.99881 1.79853 3.96456 1.72262 3.89298L0.109489 2.37682ZM4.13283 3.1349L7.3591 0.102578C7.43501 0.0312294 7.52357 -0.00289916 7.62479 0.000192618C7.72601 0.00328439 7.81457 0.0403856 7.89048 0.111496C7.96007 0.182845 7.99651 0.266085 7.9998 0.361217C8.00309 0.456349 7.96665 0.539589 7.89048 0.610937L4.39852 3.89298C4.32261 3.96433 4.23405 4 4.13283 4C4.03162 4 3.94305 3.96433 3.86714 3.89298L2.25401 2.37682C2.18442 2.31141 2.14963 2.22972 2.14963 2.13173C2.14963 2.03375 2.18442 1.94896 2.25401 1.87738C2.32992 1.80603 2.42013 1.77035 2.52463 1.77035C2.62914 1.77035 2.71922 1.80603 2.79488 1.87738L4.13283 3.1349ZM5.73648 0.619856L4.39852 1.87738C4.32894 1.94278 4.24202 1.97548 4.13777 1.97548C4.03351 1.97548 3.9433 1.94278 3.86714 1.87738C3.79123 1.80603 3.75327 1.72136 3.75327 1.62338C3.75327 1.52539 3.79123 1.4406 3.86714 1.36902L5.20509 0.111496C5.27468 0.0460935 5.36172 0.0133922 5.46623 0.0133922C5.57073 0.0133922 5.66082 0.0460935 5.73648 0.111496C5.81239 0.182845 5.85034 0.267512 5.85034 0.365498C5.85034 0.463483 5.81239 0.548269 5.73648 0.619856Z" fill="white"/>
</svg>
