<svg width="7" height="7" viewBox="0 0 7 7" fill="none" xmlns="http://www.w3.org/2000/svg">
    <path d="M6 4.66667H3.66667C3.60667 4.66667 3.54667 4.68333 3.49667 4.71333L2.33333 5.41V5C2.33333 4.81667 2.18333 4.66667 2 4.66667H0.666667V0.666667H4.33333V0H0.666667C0.3 0 0 0.3 0 0.666667V4.66667C0 5.03333 0.3 5.33333 0.666667 5.33333H1.66667V6C1.66667 6.12 1.73 6.23 1.83667 6.29C1.88763 6.31875 1.94527 6.33358 2.00378 6.33299C2.06229 6.33241 2.11962 6.31643 2.17 6.28667L3.75667 5.33333H5.99667C6.36333 5.33333 6.66333 5.03333 6.66333 4.66667V2.33333H5.99667V4.66667H6Z" fill="#B8B8B8"/>
</svg>
