<svg width="8" height="6" viewBox="0 0 8 6" fill="none" xmlns="http://www.w3.org/2000/svg">
<path d="M0 5.33334V4.40001C0 4.21112 0.0486667 4.03756 0.146 3.87934C0.243333 3.72112 0.372444 3.60023 0.533333 3.51668C0.877778 3.34445 1.22778 3.21534 1.58333 3.12934C1.93889 3.04334 2.3 3.00023 2.66667 3.00001C3.03333 2.99979 3.39444 3.0429 3.75 3.12934C4.10556 3.21579 4.45556 3.3449 4.8 3.51668C4.96111 3.60001 5.09033 3.7209 5.18767 3.87934C5.285 4.03779 5.33356 4.21134 5.33333 4.40001V5.33334H0ZM6 5.33334V4.33334C6 4.0889 5.932 3.85412 5.796 3.62901C5.66 3.4039 5.46689 3.2109 5.21667 3.05001C5.5 3.08334 5.76667 3.14034 6.01667 3.22101C6.26667 3.30168 6.5 3.40023 6.71667 3.51668C6.91667 3.62779 7.06944 3.75134 7.175 3.88734C7.28056 4.02334 7.33333 4.17201 7.33333 4.33334V5.33334H6ZM1.725 2.27501C1.46389 2.0139 1.33333 1.70001 1.33333 1.33334C1.33333 0.966675 1.46389 0.652786 1.725 0.391675C1.98611 0.130564 2.3 8.54689e-06 2.66667 8.54689e-06C3.03333 8.54689e-06 3.34722 0.130564 3.60833 0.391675C3.86944 0.652786 4 0.966675 4 1.33334C4 1.70001 3.86944 2.0139 3.60833 2.27501C3.34722 2.53612 3.03333 2.66668 2.66667 2.66668C2.3 2.66668 1.98611 2.53612 1.725 2.27501ZM5.60833 2.27501C5.34722 2.53612 5.03333 2.66668 4.66667 2.66668C4.60556 2.66668 4.52778 2.65979 4.43333 2.64601C4.33889 2.63223 4.26111 2.6169 4.2 2.60001C4.35 2.42223 4.46533 2.22501 4.546 2.00834C4.62667 1.79168 4.66689 1.56668 4.66667 1.33334C4.66644 1.10001 4.62622 0.875009 4.546 0.658342C4.46578 0.441675 4.35044 0.244453 4.2 0.0666752C4.27778 0.0388974 4.35556 0.0207864 4.43333 0.0123419C4.51111 0.0038975 4.58889 -0.000213675 4.66667 8.54689e-06C5.03333 8.54689e-06 5.34722 0.130564 5.60833 0.391675C5.86944 0.652786 6 0.966675 6 1.33334C6 1.70001 5.86944 2.0139 5.60833 2.27501Z" fill="white"/>
</svg>
