<svg width="8" height="8" viewBox="0 0 8 8" fill="none" xmlns="http://www.w3.org/2000/svg">
<path d="M1.59511 8C1.3758 8 1.18115 7.92963 1.01115 7.78889C0.841151 7.64815 0.737094 7.47037 0.69898 7.25556L0.00703104 3.18889C-0.0156558 3.05556 0.0165595 2.93526 0.103677 2.828C0.190795 2.72074 0.306044 2.66696 0.449425 2.66667H7.55041C7.69409 2.66667 7.80949 2.72044 7.89661 2.828C7.98373 2.93556 8.01579 3.05585 7.9928 3.18889L7.30085 7.25556C7.26304 7.47037 7.15913 7.64815 6.98913 7.78889C6.81913 7.92963 6.62433 8 6.40472 8H1.59511ZM3.09244 5.33333H4.90739C5.03595 5.33333 5.14379 5.29067 5.2309 5.20533C5.31802 5.12 5.36143 5.01452 5.36113 4.88889C5.36082 4.76326 5.31727 4.65778 5.23045 4.57244C5.14364 4.48711 5.03595 4.44444 4.90739 4.44444H3.09244C2.96388 4.44444 2.8562 4.48711 2.76938 4.57244C2.68257 4.65778 2.63901 4.76326 2.63871 4.88889C2.6384 5.01452 2.68196 5.12015 2.76938 5.20578C2.8568 5.29141 2.96449 5.33393 3.09244 5.33333ZM1.27749 2.22222C1.14894 2.22222 1.04125 2.17956 0.954434 2.09422C0.867619 2.00889 0.82406 1.90341 0.823757 1.77778C0.823455 1.65215 0.867014 1.54667 0.954434 1.46133C1.04185 1.376 1.14954 1.33333 1.27749 1.33333H6.72234C6.8509 1.33333 6.95873 1.376 7.04585 1.46133C7.13297 1.54667 7.17638 1.65215 7.17607 1.77778C7.17577 1.90341 7.13221 2.00904 7.0454 2.09467C6.95858 2.1803 6.8509 2.22281 6.72234 2.22222H1.27749ZM2.18497 0.888889C2.05641 0.888889 1.94872 0.846222 1.86191 0.760889C1.77509 0.675556 1.73153 0.570074 1.73123 0.444444C1.73093 0.318815 1.77449 0.213333 1.86191 0.128C1.94933 0.0426667 2.05701 0 2.18497 0H5.81486C5.94342 0 6.05126 0.0426667 6.13838 0.128C6.22549 0.213333 6.2689 0.318815 6.2686 0.444444C6.2683 0.570074 6.22474 0.675704 6.13792 0.761333C6.05111 0.846963 5.94342 0.889481 5.81486 0.888889H2.18497Z" fill="white"/>
</svg>
