<svg width="6" height="8" viewBox="0 0 6 8" fill="none" xmlns="http://www.w3.org/2000/svg">
<path d="M3 8C2.24286 8 1.625 7.8884 1.14643 7.6652C0.667857 7.442 0.428571 7.1536 0.428571 6.8C0.428571 6.67333 0.459 6.55667 0.519857 6.45C0.580714 6.34333 0.671714 6.24333 0.792857 6.15C0.892857 6.08333 1.00186 6.05667 1.11986 6.07C1.23786 6.08333 1.33243 6.13667 1.40357 6.23C1.47471 6.32333 1.50157 6.42507 1.48414 6.5352C1.46671 6.64533 1.40771 6.7336 1.30714 6.8C1.4 6.90667 1.61428 7 1.95 7.08C2.28571 7.16 2.63571 7.2 3 7.2C3.36428 7.2 3.71428 7.16 4.05 7.08C4.38571 7 4.6 6.90667 4.69285 6.8C4.59285 6.73333 4.53385 6.64493 4.51585 6.5348C4.49785 6.42467 4.52471 6.32307 4.59643 6.23C4.66814 6.13693 4.76286 6.0836 4.88057 6.07C4.99828 6.0564 5.10714 6.08307 5.20714 6.15C5.32857 6.24333 5.41971 6.34333 5.48057 6.45C5.54143 6.55667 5.57171 6.67333 5.57143 6.8C5.57143 7.15333 5.33214 7.44173 4.85357 7.6652C4.375 7.88867 3.75714 8.00027 3 8ZM2.74286 6.57C2.65714 6.54333 2.57857 6.50333 2.50714 6.45C1.66429 5.82333 1.03571 5.21173 0.621428 4.6152C0.207143 4.01867 0 3.4336 0 2.86C0 2.38667 0.0911428 1.9716 0.273428 1.6148C0.455714 1.258 0.689571 0.959734 0.975 0.720001C1.26043 0.480267 1.58186 0.300267 1.93928 0.180001C2.29671 0.0597342 2.65028 -0.000265782 3 8.84955e-07C3.34971 0.000267552 3.70328 0.0602676 4.06071 0.180001C4.41814 0.299734 4.73957 0.479734 5.025 0.720001C5.31043 0.960267 5.54443 1.25867 5.727 1.6152C5.90957 1.97173 6.00057 2.38667 6 2.86C6 3.43333 5.79285 4.0184 5.37857 4.6152C4.96428 5.212 4.33571 5.8236 3.49286 6.45C3.42143 6.50333 3.34286 6.54333 3.25714 6.57C3.17143 6.59667 3.08571 6.61 3 6.61C2.91428 6.61 2.82857 6.59667 2.74286 6.57ZM3 3.6C3.23571 3.6 3.43757 3.52173 3.60557 3.3652C3.77357 3.20867 3.85743 3.02027 3.85714 2.8C3.85686 2.57973 3.773 2.39147 3.60557 2.2352C3.43814 2.07893 3.23628 2.00053 3 2C2.76371 1.99947 2.562 2.07787 2.39486 2.2352C2.22771 2.39253 2.14371 2.5808 2.14286 2.8C2.142 3.0192 2.226 3.2076 2.39486 3.3652C2.56371 3.5228 2.76543 3.60107 3 3.6Z" fill="white"/>
</svg>
