<svg width="8" height="8" viewBox="0 0 8 8" fill="none" xmlns="http://www.w3.org/2000/svg">
<path d="M0.909091 7.99999C0.659091 7.99999 0.445152 7.91303 0.267273 7.73911C0.089394 7.56518 0.00030303 7.35585 0 7.11111V0.888888C0 0.644444 0.0890909 0.435259 0.267273 0.261333C0.445455 0.0874074 0.659394 0.000296296 0.909091 0H3.63636C3.76515 0 3.87318 0.0426667 3.96045 0.128C4.04773 0.213333 4.09121 0.318815 4.09091 0.444444C4.09061 0.570074 4.04697 0.675703 3.96 0.761333C3.87303 0.846962 3.76515 0.889481 3.63636 0.888888H0.909091V7.11111H3.63636C3.76515 7.11111 3.87318 7.15377 3.96045 7.23911C4.04773 7.32444 4.09121 7.42992 4.09091 7.55555C4.09061 7.68118 4.04697 7.78681 3.96 7.87244C3.87303 7.95807 3.76515 8.00059 3.63636 7.99999H0.909091ZM6.44318 4.44444H3.18182C3.05303 4.44444 2.94515 4.40177 2.85818 4.31644C2.77121 4.23111 2.72758 4.12563 2.72727 4C2.72697 3.87437 2.77061 3.76889 2.85818 3.68355C2.94576 3.59822 3.05364 3.55555 3.18182 3.55555H6.44318L5.59091 2.72222C5.50758 2.64074 5.46591 2.54074 5.46591 2.42222C5.46591 2.3037 5.50758 2.2 5.59091 2.11111C5.67424 2.02222 5.7803 1.97585 5.90909 1.972C6.03788 1.96815 6.14773 2.01081 6.23864 2.1L7.86364 3.68889C7.95455 3.77778 8 3.88148 8 4C8 4.11852 7.95455 4.22222 7.86364 4.31111L6.23864 5.9C6.14773 5.98888 6.03985 6.03155 5.915 6.028C5.79015 6.02444 5.68212 5.97807 5.59091 5.88888C5.50758 5.8 5.46788 5.69451 5.47182 5.57244C5.47576 5.45037 5.51924 5.34844 5.60227 5.26666L6.44318 4.44444Z" fill="#020202"/>
</svg>
