<svg width="84" height="74" viewBox="0 0 84 74" fill="none" xmlns="http://www.w3.org/2000/svg">
<path d="M3.21941 15.3373L12.9218 29.7267C14.5729 32.1755 15.4073 35.0838 15.3057 38.0355L14.6532 56.9743C14.5729 59.3051 16.7925 61.0343 19.0328 60.3864C20.4771 59.9687 21.4809 58.6589 21.5086 57.1557L21.9104 35.3881C21.9245 34.6251 22.434 33.9603 23.167 33.7483C24.0904 33.4813 25.0554 34.0133 25.3224 34.9367L30.7887 53.8391C31.2526 55.4433 32.9292 56.3678 34.5335 55.9038C36.1378 55.4399 37.0622 53.7633 36.5983 52.159L31.132 33.2566C30.865 32.3333 31.397 31.3683 32.3204 31.1013C33.0534 30.8893 33.8391 31.1796 34.2582 31.8173L46.2162 50.0106C47.042 51.267 48.5899 51.8389 50.0342 51.4212C52.2746 50.7734 53.2286 48.1264 51.9167 46.1983L41.2566 30.5309C39.5952 28.089 38.7486 25.1843 38.8378 22.2322L39.363 4.87095C39.4332 2.54717 37.2186 0.82921 34.9853 1.47506C33.5304 1.89578 32.5242 3.22152 32.5103 4.73592L32.3231 25.1592C32.3161 25.9251 31.8072 26.5956 31.0714 26.8083C30.1519 27.0742 29.1909 26.5444 28.925 25.6248L23.7879 7.86089C23.324 6.25661 21.6474 5.33218 20.0431 5.79612C18.4388 6.26005 17.5144 7.93667 17.9783 9.54094L23.2447 27.7522C23.4849 28.5828 23.0063 29.4509 22.1757 29.6911C21.5156 29.882 20.8083 29.6203 20.4315 29.0457L8.94418 11.5303C8.11687 10.2688 6.56381 9.69413 5.11466 10.1132C2.87453 10.761 1.91574 13.4039 3.21941 15.3373Z" fill="white"/>
<path d="M48.3803 27.0533L57.9751 3.8249C58.625 2.25157 60.4273 1.50297 62.0006 2.15286C63.574 2.80274 64.3226 4.60501 63.6727 6.17834L61.1407 12.3081C60.4894 13.8848 61.2396 15.6909 62.8163 16.3422C63.7709 16.7364 64.8593 16.6276 65.7168 16.0521L75.8854 9.22778C76.6573 8.70971 77.6371 8.61171 78.4964 8.96664C80.5406 9.81101 80.8285 12.5883 79.001 13.8341L72.1628 18.4955C69.7906 20.1127 68.5964 22.9775 69.1177 25.8008L70.7554 34.6704C71.1829 36.9855 68.876 38.8541 66.7001 37.9554C65.7504 37.5631 65.0709 36.7079 64.9033 35.6941L62.8102 23.0283C62.6384 21.9884 61.9414 21.1113 60.9673 20.7089C59.412 20.0665 57.6303 20.8065 56.9879 22.3618L54.0779 29.4068C53.428 30.9801 51.6257 31.7287 50.0524 31.0788C48.4791 30.4289 47.7305 28.6267 48.3803 27.0533Z" fill="white"/>
<path d="M76.5228 46.8197L70.3596 51.9909C68.113 53.8759 67.25 56.9444 68.1846 59.7241L71.0903 68.3662C71.8344 70.5792 69.8021 72.7242 67.5522 72.1005C66.5777 71.8304 65.8132 71.074 65.5325 70.1025L64.956 68.1071C63.5852 63.3621 57.6931 61.7289 54.075 65.0909L52.5535 66.5048C51.8127 67.1931 50.7679 67.4479 49.7934 67.1778C47.5435 66.5541 46.9056 63.669 48.6828 62.1549L55.6689 56.203C57.8824 54.3173 58.7455 51.286 57.8575 48.5171L55.3416 40.6721C54.6715 38.5828 56.5907 36.5853 58.7052 37.1714C59.6217 37.4255 60.3427 38.1338 60.6131 39.0457L61.1599 40.8903C62.4684 45.3042 67.9474 46.823 71.3416 43.7127L72.7035 42.4647C73.4399 41.7898 74.472 41.542 75.4346 41.8088C77.6824 42.4319 78.3097 45.3205 76.5228 46.8197Z" fill="white"/>
</svg>
