<svg width="8" height="6" viewBox="0 0 8 6" fill="none" xmlns="http://www.w3.org/2000/svg">
<path d="M0.8 6C0.58 6 0.391733 5.92662 0.2352 5.77987C0.0786667 5.63312 0.000266667 5.4565 0 5.25V0.75C0 0.54375 0.0784 0.36725 0.2352 0.2205C0.392 0.0737499 0.580267 0.00025 0.8 0H7.2C7.42 0 7.6084 0.0734999 7.7652 0.2205C7.922 0.3675 8.00027 0.544 8 0.75V5.25C8 5.45625 7.92173 5.63287 7.7652 5.77987C7.60867 5.92687 7.42027 6.00025 7.2 6H0.8ZM4 3.375L7.2 1.5V0.75L4 2.625L0.8 0.75V1.5L4 3.375Z" fill="white"/>
</svg>
