<svg width="8" height="8" viewBox="0 0 8 8" fill="none" xmlns="http://www.w3.org/2000/svg">
<path d="M7 5.66667H4.66667C4.60667 5.66667 4.54667 5.68333 4.49667 5.71333L3.33333 6.41V6C3.33333 5.81667 3.18333 5.66667 3 5.66667H1.66667V1.66667H5.33333V1H1.66667C1.3 1 1 1.3 1 1.66667V5.66667C1 6.03333 1.3 6.33333 1.66667 6.33333H2.66667V7C2.66667 7.12 2.73 7.23 2.83667 7.29C2.88763 7.31875 2.94527 7.33358 3.00378 7.33299C3.06229 7.33241 3.11962 7.31643 3.17 7.28667L4.75667 6.33333H6.99667C7.36333 6.33333 7.66333 6.03333 7.66333 5.66667V3.33333H6.99667V5.66667H7Z" fill="#B8B8B8"/>
<path d="M6.6665 0.666626C6.40129 0.666626 6.14693 0.771983 5.9594 0.959519C5.77186 1.14706 5.6665 1.40141 5.6665 1.66663C5.6665 1.93184 5.77186 2.1862 5.9594 2.37373C6.14693 2.56127 6.40129 2.66663 6.6665 2.66663C6.93172 2.66663 7.18607 2.56127 7.37361 2.37373C7.56115 2.1862 7.6665 1.93184 7.6665 1.66663C7.6665 1.40141 7.56115 1.14706 7.37361 0.959519C7.18607 0.771983 6.93172 0.666626 6.6665 0.666626Z" fill="#E03B16"/>
</svg>
