<svg width="8" height="8" viewBox="0 0 8 8" fill="none" xmlns="http://www.w3.org/2000/svg">
<path d="M3.76026 6.46406L6.71856 3.50576C6.22089 3.29786 5.76889 2.99426 5.38821 2.61219C5.00595 2.23143 4.70221 1.77928 4.49424 1.28144L1.53594 4.23974C1.30515 4.47053 1.18956 4.58612 1.09036 4.71332C0.97332 4.8635 0.872873 5.02591 0.79077 5.1977C0.721572 5.3433 0.669974 5.49849 0.566778 5.80808L0.0219974 7.44122C-0.00307619 7.516 -0.00679623 7.59628 0.0112553 7.67306C0.0293069 7.74983 0.0684145 7.82005 0.124182 7.87582C0.17995 7.93159 0.250167 7.97069 0.326941 7.98875C0.403715 8.0068 0.484002 8.00308 0.558778 7.978L2.19192 7.43322C2.50191 7.33003 2.6567 7.27843 2.8023 7.20923C2.97483 7.1271 3.13629 7.02724 3.28668 6.90964C3.41388 6.81044 3.52947 6.69485 3.76026 6.46406ZM7.53933 2.68499C7.83429 2.39003 8 1.98997 8 1.57283C8 1.15569 7.83429 0.755635 7.53933 0.460672C7.24436 0.165709 6.84431 3.10794e-09 6.42717 0C6.01003 -3.10794e-09 5.60997 0.165709 5.31501 0.460672L4.96022 0.815459L4.97542 0.859858C5.15021 1.36015 5.43633 1.81422 5.81219 2.18781C6.19695 2.57492 6.66692 2.86668 7.18454 3.03978L7.53933 2.68499Z" fill="#020202"/>
</svg>
