<svg width="8" height="8" viewBox="0 0 8 8" fill="none" xmlns="http://www.w3.org/2000/svg">
<path d="M4 0C1.792 0 0 1.792 0 4C0 6.208 1.792 8 4 8C6.208 8 8 6.208 8 4C8 1.792 6.208 0 4 0ZM5.856 2.72C5.796 3.352 5.536 4.888 5.404 5.596C5.348 5.896 5.236 5.996 5.132 6.008C4.9 6.028 4.724 5.856 4.5 5.708C4.148 5.476 3.948 5.332 3.608 5.108C3.212 4.848 3.468 4.704 3.696 4.472C3.756 4.412 4.78 3.48 4.8 3.396C4.80278 3.38328 4.80241 3.37007 4.79892 3.35752C4.79544 3.34497 4.78894 3.33347 4.78 3.324C4.756 3.304 4.724 3.312 4.696 3.316C4.66 3.324 4.1 3.696 3.008 4.432C2.848 4.54 2.704 4.596 2.576 4.592C2.432 4.588 2.16 4.512 1.956 4.444C1.704 4.364 1.508 4.32 1.524 4.18C1.532 4.108 1.632 4.036 1.82 3.96C2.988 3.452 3.764 3.116 4.152 2.956C5.264 2.492 5.492 2.412 5.644 2.412C5.676 2.412 5.752 2.42 5.8 2.46C5.84 2.492 5.852 2.536 5.856 2.568C5.852 2.592 5.86 2.664 5.856 2.72Z" fill="white"/>
</svg>
